<?xml version="1.0" standalone="no"?>
<!DOCTYPE svg PUBLIC "-//W3C//DTD SVG 20010904//EN"
 "http://www.w3.org/TR/2001/REC-SVG-20010904/DTD/svg10.dtd">
<svg version="1.0" xmlns="http://www.w3.org/2000/svg"
 width="720.000000pt" height="720.000000pt" viewBox="0 0 720.000000 720.000000"
 preserveAspectRatio="xMidYMid meet">
<metadata>
Created by potrace 1.11, written by Peter Selinger 2001-2013
</metadata>
<g transform="translate(0.000000,720.000000) scale(0.100000,-0.100000)"
fill="#000000" stroke="none">
<path d="M2804 7183 c0 -10 -3 -39 -7 -65 -7 -53 -6 -54 78 -63 42 -5 212 -37
265 -50 262 -66 481 -149 765 -292 51 -26 247 -144 310 -187 282 -192 545
-442 762 -722 39 -49 76 -101 83 -115 7 -13 16 -26 20 -29 16 -12 136 -215
189 -320 132 -259 247 -592 294 -850 17 -89 27 -152 33 -200 4 -30 8 -66 10
-80 28 -209 22 -595 -12 -820 -8 -58 -17 -116 -19 -130 -8 -60 -49 -231 -79
-333 -204 -691 -626 -1279 -1181 -1643 -302 -198 -637 -329 -980 -384 -124
-19 -195 -24 -355 -24 -166 0 -271 8 -385 30 -11 2 -33 7 -50 9 -56 10 -240
65 -317 94 -95 37 -248 112 -305 152 -24 16 -46 29 -49 29 -3 0 -39 25 -79 56
-252 189 -450 455 -546 731 -31 88 -64 226 -74 310 -12 99 -8 291 9 373 41
210 110 376 229 550 57 82 191 221 278 287 112 86 282 172 412 208 76 22 69
29 -7 9 -255 -67 -531 -263 -693 -494 -29 -41 -57 -80 -61 -85 -11 -13 -103
-199 -119 -240 -84 -214 -102 -514 -46 -770 53 -243 193 -509 374 -708 50 -55
161 -154 259 -231 86 -67 382 -219 470 -241 3 -1 12 -4 20 -8 48 -18 196 -59
215 -58 2 0 19 -4 36 -9 18 -5 48 -12 68 -15 20 -3 48 -8 61 -10 91 -18 397
-26 535 -13 249 24 521 95 771 203 450 195 882 562 1175 1000 96 142 119 182
198 337 128 250 240 568 286 808 3 14 9 48 15 75 17 88 40 266 47 375 12 186
6 496 -11 630 -2 14 -7 48 -10 75 -6 44 -26 163 -40 235 -10 49 -47 196 -67
264 -11 38 -22 76 -24 85 -10 40 -94 259 -132 341 -129 279 -267 502 -451 729
-116 143 -336 361 -481 477 -13 10 -38 31 -55 45 -202 167 -574 379 -871 494
-153 60 -411 135 -545 160 -14 2 -50 9 -80 15 -112 22 -136 22 -136 3z"/>
<path d="M6128 5755 c-2 -2 -26 -5 -55 -9 -122 -14 -215 -66 -333 -186 -43
-42 -96 -108 -119 -146 l-41 -69 33 -6 c17 -4 64 -10 103 -13 39 -4 80 -8 90
-10 11 -2 50 -7 88 -11 38 -4 79 -8 90 -10 12 -2 44 -7 71 -11 28 -4 53 -8 57
-8 27 -3 5 -19 -84 -61 -57 -26 -164 -77 -238 -113 -74 -35 -145 -68 -158 -73
l-23 -9 28 -24 c39 -32 172 -126 179 -126 3 0 20 -11 37 -24 70 -52 131 -78
187 -81 151 -6 415 130 735 378 72 56 139 111 151 122 12 11 43 38 69 60 26
22 59 50 72 61 l25 21 -84 70 c-109 91 -184 136 -330 196 -45 19 -169 54 -218
62 -19 3 -44 8 -54 12 -19 5 -273 13 -278 8z"/>
<path d="M4730 5339 c-66 -9 -213 -60 -290 -102 -152 -80 -298 -203 -397 -335
-71 -95 -168 -283 -150 -293 28 -16 327 -107 405 -124 9 -2 69 -15 132 -29 63
-14 138 -28 165 -32 28 -3 53 -8 56 -10 11 -6 157 -17 234 -17 104 0 164 11
225 41 45 22 64 40 103 97 26 39 51 77 54 85 4 8 21 38 38 65 45 72 80 143 74
149 -2 3 -94 8 -204 11 -236 7 -357 13 -362 19 -5 5 128 88 315 196 82 47 139
86 136 93 -2 7 -23 23 -46 37 -22 14 -55 34 -72 44 -75 45 -241 101 -326 109
-19 2 -60 0 -90 -4z"/>
<path d="M2200 4448 c-12 -48 -15 -180 -6 -223 29 -138 81 -251 141 -309 42
-41 165 -112 182 -105 5 2 -8 58 -29 123 -21 66 -36 122 -33 124 3 4 59 -54
150 -156 21 -23 40 -41 42 -39 9 10 24 104 25 167 2 58 -31 111 -123 202 -80
79 -256 220 -326 261 -7 5 -15 -11 -23 -45z"/>
<path d="M2233 3748 c-35 -5 -63 -13 -63 -17 0 -8 62 2 125 19 39 11 15 10
-62 -2z"/>
<path d="M2710 3675 c0 -9 11 -66 25 -127 14 -61 24 -115 23 -120 -2 -6 -24
16 -48 48 -25 32 -53 68 -62 79 -9 11 -25 31 -36 45 l-20 25 -12 -30 c-7 -16
-13 -67 -15 -112 -2 -63 2 -92 18 -130 51 -120 156 -244 268 -316 64 -41 127
-69 132 -59 9 16 -6 342 -18 402 -25 119 -50 184 -81 212 -10 9 -54 35 -96 58
-63 33 -78 38 -78 25z"/>
<path d="M647 3404 c-1 -1 -36 -5 -77 -9 -94 -9 -124 -12 -158 -19 -15 -3 -45
-8 -67 -11 -48 -6 -205 -35 -222 -40 -9 -3 -5 -18 14 -52 108 -196 311 -356
563 -444 82 -29 216 -31 304 -5 66 19 176 68 176 77 0 5 -103 63 -235 133 -22
12 -41 24 -43 29 -2 4 -9 7 -15 7 -7 0 -23 9 -37 20 l-25 20 155 -5 c85 -4
183 -8 217 -9 l62 -3 -14 27 c-15 28 -126 182 -154 211 -23 25 -96 56 -151 65
-39 6 -287 13 -293 8z"/>
<path d="M4480 3392 c-121 -16 -318 -73 -357 -104 -18 -15 158 -255 312 -427
181 -200 331 -304 440 -305 44 0 310 70 354 94 13 7 -35 51 -209 190 -124 99
-150 128 -110 123 23 -3 101 -14 140 -19 31 -4 108 -17 180 -29 14 -3 46 -8
72 -11 l48 -7 -11 34 c-10 32 -17 51 -42 109 -21 47 -94 155 -128 188 -66 65
-187 117 -348 149 -70 14 -282 23 -341 15z"/>
<path d="M1590 3091 c-71 -19 -210 -68 -218 -76 -7 -6 -22 4 176 -125 151
-100 201 -139 160 -125 -7 2 -42 7 -78 10 -120 12 -135 14 -223 26 -49 6 -90
9 -92 7 -11 -11 89 -154 151 -216 81 -81 130 -107 264 -141 221 -54 458 -38
634 43 l69 31 -139 141 c-213 215 -358 333 -489 398 -90 44 -133 50 -215 27z"/>
<path d="M5860 2907 c-3 -2 -25 -7 -50 -10 -25 -3 -68 -13 -97 -22 l-52 -16
97 -92 c250 -237 252 -240 157 -216 -22 5 -51 12 -65 15 -14 3 -96 23 -184 45
-87 21 -161 39 -164 39 -9 0 8 -65 50 -192 47 -144 70 -176 155 -215 58 -27
211 -67 293 -78 182 -22 218 -24 472 -30 l238 -6 -6 33 c-3 18 -12 62 -20 98
-60 250 -267 498 -510 612 -63 30 -79 33 -189 36 -66 2 -122 2 -125 -1z"/>
<path d="M3539 2507 c-18 -29 -13 -554 6 -657 3 -14 7 -42 10 -63 7 -65 37
-170 62 -224 47 -99 94 -130 327 -214 44 -16 85 -29 91 -29 9 0 4 35 -17 118
-15 64 -31 131 -34 147 -3 17 -9 46 -14 65 -5 19 -12 53 -16 75 -3 22 -8 43
-11 48 -2 4 0 7 4 7 9 0 65 -58 237 -244 l89 -96 17 39 c32 71 49 172 47 276
-2 86 -6 109 -30 159 -65 140 -182 279 -334 396 -90 70 -257 153 -353 175 -8
2 -30 8 -47 14 -18 5 -34 9 -34 8z"/>
<path d="M2945 2070 c-11 -5 -72 -27 -135 -50 -63 -23 -128 -47 -145 -55 -31
-13 -122 -54 -185 -83 -102 -46 -259 -149 -308 -202 -56 -62 -65 -94 -70 -267
-2 -90 -2 -163 2 -163 3 0 88 54 187 121 100 66 183 118 186 115 5 -4 -146
-313 -167 -341 -4 -5 -10 -18 -14 -29 -6 -18 -2 -18 71 -13 97 7 111 10 198
42 95 35 150 78 220 171 88 116 161 272 191 405 2 11 7 29 10 42 8 31 14 245
7 285 -5 33 -14 37 -48 22z"/>
<path d="M4504 1173 c4 -21 9 -51 11 -68 2 -16 11 -73 19 -125 22 -145 28
-210 19 -210 -4 1 -57 64 -118 141 -60 77 -120 152 -132 167 -12 15 -30 38
-41 51 l-19 25 -18 -33 c-9 -18 -36 -86 -59 -151 -31 -86 -42 -131 -40 -164 8
-146 234 -400 637 -717 61 -48 114 -86 118 -84 12 8 77 151 93 205 28 101 36
157 36 270 0 85 -1 95 -14 180 -22 142 -107 318 -180 374 -19 14 -40 31 -48
38 -23 22 -121 83 -163 102 -22 9 -48 21 -57 26 -38 21 -50 13 -44 -27z"/>
<path d="M1702 1016 c-129 -37 -301 -343 -448 -794 -20 -62 -33 -116 -29 -120
4 -4 64 -7 133 -6 158 1 256 24 397 94 116 57 249 159 299 227 39 54 81 160
96 245 14 76 19 168 9 168 -4 0 -34 -15 -66 -34 -155 -90 -303 -169 -303 -162
0 7 28 59 51 96 88 138 179 289 179 295 0 10 -280 2 -318 -9z"/>
</g>
</svg>
